<svg xmlns="http://www.w3.org/2000/svg" width="256" height="256" viewBox="0 0 100 100"><rect width="100" height="100" rx="50" fill="#4a90e2"></rect><path fill="#fff" d="M33.00 38.27L33.00 38.27Q33.00 39.31 32.42 40.07Q31.85 40.82 31.12 41.24L31.12 41.24Q29.77 40.35 28.11 39.63Q26.44 38.90 24.00 38.90L24.00 38.90Q19.58 38.90 16.95 41.76Q14.33 44.62 14.33 50.03L14.33 50.03Q14.33 55.54 17.03 58.29Q19.74 61.05 24.31 61.05L24.31 61.05Q26.70 61.05 28.45 60.40Q30.19 59.75 31.54 58.87L31.54 58.87Q32.27 59.33 32.74 60.14Q33.20 60.95 33.20 61.99L33.20 61.99Q33.20 62.87 32.74 63.60Q32.27 64.33 31.18 64.90L31.18 64.90Q30.14 65.52 28.24 66.07Q26.34 66.61 23.53 66.61L23.53 66.61Q20.10 66.61 17.16 65.60Q14.22 64.59 12.04 62.53Q9.86 60.48 8.61 57.36Q7.36 54.24 7.36 50.03L7.36 50.03Q7.36 45.97 8.61 42.88Q9.86 39.78 12.01 37.68Q14.17 35.57 17.06 34.48Q19.94 33.39 23.17 33.39L23.17 33.39Q25.40 33.39 27.22 33.78Q29.04 34.17 30.34 34.84Q31.64 35.52 32.32 36.40Q33.00 37.29 33.00 38.27ZM58.37 63.55L56.81 58.35L45.16 58.35Q44.59 60.27 43.94 62.35Q43.29 64.43 42.88 65.78L42.88 65.78Q42.36 65.99 41.76 66.15Q41.16 66.30 40.28 66.30L40.28 66.30Q38.51 66.30 37.52 65.60Q36.53 64.90 36.53 63.60L36.53 63.60Q36.53 62.97 36.71 62.38Q36.90 61.78 37.16 61.00L37.16 61.00Q37.57 59.54 38.27 57.49Q38.98 55.43 39.78 53.02Q40.59 50.60 41.52 48.02Q42.46 45.45 43.32 43.03Q44.18 40.61 44.98 38.51Q45.79 36.40 46.36 34.89L46.36 34.89Q47.04 34.53 48.36 34.17Q49.69 33.80 51.04 33.80L51.04 33.80Q52.86 33.80 54.37 34.35Q55.88 34.89 56.29 36.09L56.29 36.09Q57.33 38.95 58.58 42.67Q59.83 46.39 61.10 50.34Q62.38 54.29 63.57 58.09Q64.77 61.88 65.70 64.90L65.70 64.90Q65.18 65.47 64.27 65.86Q63.36 66.25 62.12 66.25L62.12 66.25Q60.30 66.25 59.54 65.60Q58.79 64.95 58.37 63.55L58.37 63.55ZM51.25 39.73L50.99 39.73Q50.52 41.03 49.97 42.64Q49.43 44.25 48.83 46.00Q48.23 47.74 47.61 49.53Q46.98 51.33 46.41 53.04L46.41 53.04L55.46 53.04L51.25 39.73ZM74.49 65.89L74.49 65.89Q72.83 65.89 71.87 64.90Q70.90 63.91 70.90 62.25L70.90 62.25L70.90 37.81Q70.90 36.14 71.87 35.18Q72.83 34.22 74.49 34.22L74.49 34.22L91.70 34.22Q91.96 34.63 92.17 35.31Q92.38 35.99 92.38 36.82L92.38 36.82Q92.38 38.17 91.76 38.90Q91.13 39.63 90.04 39.63L90.04 39.63L77.46 39.63L77.46 47.01L90.14 47.01Q90.40 47.43 90.64 48.08Q90.87 48.73 90.87 49.56L90.87 49.56Q90.87 52.37 88.48 52.37L88.48 52.37L77.46 52.37L77.46 60.43L91.91 60.43Q92.17 60.84 92.41 61.54Q92.64 62.25 92.64 63.08L92.64 63.08Q92.64 65.89 90.25 65.89L90.25 65.89L74.49 65.89Z"></path></svg>